# xmcd
#
# Track frame offsets:
#	150
#	17043
#	39343
#	55888
#	69646
#	91127
#	114962
#	135212
#	147927
#	170713
#	183583
#
# Disc length: 2702 seconds
#
# Revision: 0
# Processed by: cddbd v1.5.2PL0 Copyright (c) Steve Scherf et al.
# Submitted via: dBpowerAMP V4.0
#
DISCID=8f0a8c0b
DTITLE=Harry Manx and Kevin Breit - In Good We Trust
DYEAR=1900
DGENRE=Blues
TTITLE0=I'm On Fire
TTITLE1=Sometimes
TTITLE2=Bottom Of The Hill
TTITLE3=Better Man's Waltz
TTITLE4=Death Have Mercy
TTITLE5=Steal 6
TTITLE6=Ship Of Fools
TTITLE7=In Good We Trust
TTITLE8=Hang On
TTITLE9=Don't Swim, Float
TTITLE10=Sisters
EXTD=
EXTT0=
EXTT1=
EXTT2=
EXTT3=
EXTT4=
EXTT5=
EXTT6=
EXTT7=
EXTT8=
EXTT9=
EXTT10=
PLAYORDER=
